<svg viewBox="0 0 800 500" preserveAspectRatio="none" xmlns="http://www.w3.org/2000/svg" xmlns:xlink="http://www.w3.org/1999/xlink" width="100%" id="blobSvg">
  <g transform="translate(-256, 14)">
    <path class="blob" d="M464,290.5Q432,331,407,364Q382,397,343.5,408Q305,419,267,432.5Q229,446,193,428.5Q157,411,114,395.5Q71,380,73.5,333.5Q76,287,73,249.5Q70,212,88.5,179Q107,146,124.5,104Q142,62,183,34.5Q224,7,271.5,22Q319,37,354.5,66Q390,95,433,122Q476,149,486,199.5Q496,250,464,290.5Z" fill="#8974f0"></path>
  </g>
</svg>